<svg width="100" height="100" viewBox="0 0 100 100" fill="none" xmlns="http://www.w3.org/2000/svg">
<path d="M80.4688 4.6875H19.5312C10.4703 4.6875 3.125 12.0328 3.125 21.0938V78.9062C3.125 87.9672 10.4703 95.3125 19.5312 95.3125H80.4688C89.5297 95.3125 96.875 87.9672 96.875 78.9062V21.0938C96.875 12.0328 89.5297 4.6875 80.4688 4.6875Z" fill="#470137"/>
<path d="M51.3164 30.3282L39.7851 50.1407L52.2109 71.2345C52.4648 71.6642 52.3554 71.8751 51.8906 71.8751H44.1406C43.9487 71.8953 43.7552 71.8574 43.5852 71.7661C43.4152 71.6748 43.2766 71.5345 43.1875 71.3634L34.4414 55.3204H34.375L25.8593 71.3634C25.781 71.516 25.6625 71.6444 25.5165 71.7346C25.3706 71.8248 25.2028 71.8734 25.0312 71.8751H17.5781C17.1523 71.8751 17.0703 71.6642 17.3242 71.2345L29.5429 50.7188L17.9023 30.1993C17.6484 29.8595 17.7343 29.6876 18.1562 29.6876H25.9218C26.0883 29.6757 26.2548 29.7116 26.4015 29.7912C26.5482 29.8708 26.6692 29.9907 26.75 30.1368L34.9531 45.9884H35.0156L43.1757 30.1368C43.2563 29.9914 43.3765 29.8719 43.5225 29.7923C43.6685 29.7128 43.8341 29.6764 44 29.6876H51.0625C51.5312 29.6876 51.6132 29.9024 51.3164 30.3282ZM70.2617 72.6563C65.7304 72.6563 62.2421 71.3712 59.5351 68.8048C56.8281 66.2384 55.4687 62.4454 55.4687 57.422C55.4687 52.8569 56.9244 49.1069 59.8359 46.172C61.3257 44.63 63.1169 43.4112 65.098 42.5913C67.0791 41.7715 69.2078 41.3681 71.3515 41.4063C72.311 41.3893 73.2689 41.4916 74.2031 41.711V28.4923C74.196 28.4428 74.2005 28.3923 74.2162 28.3448C74.2319 28.2973 74.2584 28.2541 74.2936 28.2185C74.3288 28.1829 74.3717 28.156 74.419 28.1398C74.4663 28.1236 74.5168 28.1186 74.5664 28.1251H81.707C81.9062 28.1251 82.0078 28.2462 82.0078 28.4923V65.504C82.0078 67.0665 82.6836 68.3985 82.789 69.5392C82.8106 69.6521 82.7919 69.769 82.7362 69.8696C82.6806 69.9702 82.5915 70.0482 82.4843 70.0899C78.9804 71.8009 74.3867 72.6563 70.2617 72.6563ZM74.2187 66.6056V47.711C73.9648 47.2657 72.6211 46.8751 71.2461 46.8751C70.108 46.8456 68.9778 47.0705 67.9377 47.5334C66.8977 47.9963 65.9741 48.6856 65.2343 49.5509C63.4327 51.6609 62.4607 54.3547 62.5 57.129C62.5 60.5509 63.6718 62.8946 65.1992 64.5235C65.9211 65.3514 66.8103 66.0169 67.8082 66.4761C68.806 66.9352 69.8898 67.1778 70.9882 67.1876C72.4453 67.1876 73.8711 66.9688 74.2187 66.6056Z" fill="#FF61F6"/>
</svg>
