<svg width="100" height="100" viewBox="0 0 100 100" fill="none" xmlns="http://www.w3.org/2000/svg">
<path fill-rule="evenodd" clip-rule="evenodd" d="M16.6024 26.0825C16.4011 20.3749 20.8897 15 27.1355 15H72.8708C79.117 15 83.6045 20.376 83.4033 26.0823C83.2565 30.2433 83.4635 35.4032 84.7355 39.478C85.4082 41.6315 86.2632 43.7138 87.3125 45.2523C88.3812 46.8195 89.3705 47.4295 90.2347 47.511C91.5187 47.6323 92.5 48.7103 92.5 50C92.5 51.2897 91.5187 52.3677 90.2347 52.489C89.3705 52.5705 88.3812 53.1805 87.3125 54.7477C86.2632 56.2862 85.4082 58.3685 84.7357 60.5218C83.4635 64.5975 83.2565 69.7568 83.4033 73.9178C83.6045 79.6247 79.1168 85 72.8708 85H27.1362C20.8897 85 16.4011 79.6245 16.6024 73.9175C16.7491 69.7567 16.5421 64.5975 15.27 60.5218C14.5981 58.3695 13.742 56.2873 12.6915 54.7487C11.6213 53.1815 10.6304 52.5705 9.76525 52.489C8.48118 52.3677 7.5 51.2897 7.5 50C7.5 48.7103 8.48118 47.6323 9.76525 47.511C10.6304 47.4295 11.6213 46.8185 12.6915 45.2513C13.742 43.7125 14.5981 41.6302 15.27 39.478C16.5421 35.4025 16.7491 30.2432 16.6024 26.0825ZM27.1355 20C23.9666 20 21.4889 22.775 21.5993 25.906C21.7519 30.2368 21.5702 36.0747 20.0429 40.968C19.3108 43.313 18.2779 45.9365 16.8207 48.0705C16.3642 48.7393 15.8372 49.4002 15.2341 50C15.8372 50.5998 16.3642 51.2607 16.8207 51.9295C18.2779 54.0635 19.3108 56.6868 20.0429 59.032C21.5702 63.925 21.7519 69.7633 21.5993 74.0938C21.4889 77.2243 23.9665 80 27.1362 80H72.8708C76.0395 80 78.5167 77.2253 78.4062 74.094C78.2537 69.7632 78.4355 63.9253 79.9628 59.032C80.6947 56.6883 81.7262 54.0645 83.1815 51.9305C83.6377 51.2615 84.1645 50.6003 84.7675 50C84.1645 49.3997 83.6377 48.7385 83.1815 48.0695C81.7262 45.9355 80.6947 43.3123 79.9628 40.9683C78.4355 36.0758 78.2537 30.2368 78.4062 25.9062C78.5167 22.7754 76.0393 20 72.8708 20H27.1355Z" fill="#712CF9"/>
<path fill-rule="evenodd" clip-rule="evenodd" d="M40 32.5C38.6193 32.5 37.5 33.6193 37.5 35V65C37.5 66.3807 38.6193 67.5 40 67.5H55C56.3132 67.5 57.6135 67.2412 58.8268 66.7387C60.04 66.2362 61.1425 65.4997 62.071 64.571C62.9997 63.6425 63.7362 62.54 64.2387 61.3268C64.7412 60.1135 65 58.8132 65 57.5C65 56.1868 64.7412 54.8865 64.2387 53.6732C63.7362 52.46 62.9997 51.3575 62.071 50.429C61.495 49.8528 60.8518 49.3505 60.1567 48.9323C60.813 48.151 61.347 47.2725 61.7387 46.3268C62.2412 45.1135 62.5 43.8132 62.5 42.5C62.5 41.1868 62.2412 39.8865 61.7387 38.6733C61.2362 37.46 60.4997 36.3575 59.571 35.429C58.6425 34.5003 57.54 33.7637 56.3268 33.2612C55.1135 32.7587 53.8132 32.5 52.5 32.5H40ZM52.5 37.5H42.5V47.5H52.5C53.1565 47.5 53.8067 47.3707 54.4135 47.1195C55.02 46.868 55.5712 46.4997 56.0355 46.0355C56.4998 45.5712 56.868 45.02 57.1195 44.4135C57.3707 43.8068 57.5 43.1565 57.5 42.5C57.5 41.8435 57.3707 41.1932 57.1195 40.5865C56.868 39.98 56.4998 39.4288 56.0355 38.9645C55.5712 38.5003 55.02 38.132 54.4135 37.8805C53.8067 37.6292 53.1565 37.5 52.5 37.5ZM55 52.5H42.5V62.5H55C55.6565 62.5 56.3067 62.3707 56.9135 62.1195C57.52 61.868 58.0712 61.4998 58.5355 61.0355C58.9998 60.5712 59.368 60.02 59.6195 59.4135C59.8707 58.8067 60 58.1565 60 57.5C60 56.8435 59.8707 56.1933 59.6195 55.5865C59.368 54.98 58.9998 54.4288 58.5355 53.9645C58.0712 53.5002 57.52 53.132 56.9135 52.8805C56.3067 52.6293 55.6565 52.5 55 52.5Z" fill="#712CF9"/>
</svg>
