<svg width="90" height="110" viewBox="0 0 90 110" fill="none" xmlns="http://www.w3.org/2000/svg">
<g clip-path="url(#clip0_187_24)">
<path d="M44.945 109.722L8.31848 100.909L0.15625 21.563H89.8434L81.6727 100.897L44.945 109.722Z" fill="#266FE4"/>
<path d="M74.6779 95.8454L81.6599 28.0507H45V102.977L74.6779 95.8454Z" fill="#0062FF"/>
<path d="M18.8679 57.4792L19.8741 67.2107H44.9999V57.4792H18.8679ZM16.8457 37.7825L17.8663 47.514H44.9999V37.7825H16.8457ZM44.9999 82.753L44.9507 82.7642L32.4463 79.8378L31.6468 72.0766H20.3757L21.9486 87.3565L44.9482 92.89L44.9999 92.8778V82.753Z" fill="#EBEBEB"/>
<path d="M21.2637 0H34.8621V4.92898H26.9505V9.85795H34.8628V14.7866H21.2637V0ZM37.5821 0H51.1809V4.28604H43.269V5.14319H51.1809V15.0011H37.5825V10.5003H45.4944V9.64313H37.5818L37.5821 0ZM53.901 0H67.4998V4.28604H59.5879V5.14319H67.4998V15.0011H53.901V10.5003H61.8129V9.64313H53.9013V0H53.901Z" fill="white"/>
<path d="M71.0602 57.4792L73.087 37.7825H44.9613V47.514H60.7823L59.7607 57.4792H44.9613V67.2107H58.7872L57.4836 79.8317L44.9609 82.7612V92.8855L67.9788 87.3565L68.1475 85.7123L70.7864 60.0924L71.0602 57.4792Z" fill="white"/>
</g>
<defs>
<clipPath id="clip0_187_24">
<rect width="90" height="110" fill="white"/>
</clipPath>
</defs>
</svg>
