<svg width="100" height="100" viewBox="0 0 100 100" fill="none" xmlns="http://www.w3.org/2000/svg">
<path d="M67.4068 98.12C67.4068 97.8557 67.4861 97.5915 67.4068 97.3272C67.2482 97.063 67.1689 96.8869 67.0103 96.7107C66.6138 96.1822 66.2173 95.7418 65.7415 95.2133L61.0627 89.9286L64.7105 85.7889L66.6931 83.4108C67.0103 83.0585 67.4068 82.3538 67.4068 81.8254V81.473C67.4068 80.6803 67.0896 80.2399 66.3759 80.0638L66.5345 80.1518H65.9794C65.5036 80.1518 64.1554 81.5611 63.8382 82.0015C62.6487 83.3227 61.8557 84.5558 60.2696 85.877V75.3956C60.2696 74.4267 59.7938 73.9863 58.9215 73.9863H58.6836C57.8113 73.9863 57.0975 74.4267 57.0975 75.3956V98.208C57.0975 99.1769 57.8113 99.5292 58.6836 99.5292H58.9215C59.7938 99.5292 60.2696 99.0888 60.2696 98.208V94.1564L62.6487 96.7107C63.3624 97.5034 64.0761 98.0319 64.7105 98.7365C65.0278 99.0888 65.6622 99.5292 66.138 99.5292H66.3759C67.1689 99.5292 67.4068 99.0888 67.5654 98.3842L67.4068 98.4723V98.12ZM98.414 80.1518H98.0967C96.3521 80.1518 94.7661 80.6803 93.3386 81.8254C90.9596 83.7631 89.6114 86.3174 89.6114 89.6644V98.2961C89.6114 99.265 89.9286 99.5292 90.801 99.5292H91.0389C91.9112 99.5292 92.7835 99.1769 92.7835 98.2961V90.1929C92.7835 88.4313 93.1007 86.7578 94.2903 85.4366C95.2419 84.3796 96.4314 83.4989 97.7795 83.4989C98.8105 83.4989 100 83.2346 100 81.8254C100 80.7684 99.2863 80.1518 98.414 80.1518ZM86.2014 84.5558C85.3291 82.9704 84.1396 81.7373 82.6328 80.9446C79.8573 79.4472 76.9231 79.2711 74.2268 81.0326L73.8303 81.2969C72.7201 82.0015 71.7684 82.8823 71.0547 84.0273C68.9929 87.3743 68.755 91.1617 70.5789 94.6849L70.7375 95.0372C71.5305 96.5345 72.5615 97.7676 73.9096 98.5604C76.7645 100.322 79.8573 100.498 82.7121 98.7365L82.95 98.5604C83.7431 98.0319 83.9017 97.1511 83.5052 96.2703C83.3466 95.918 83.0294 95.6537 82.7121 95.4776H82.5535C81.9984 95.3895 80.4917 96.0941 79.9366 96.3584C78.8263 96.5345 77.5575 96.6226 76.4473 96.1822L82.4742 90.369C83.3465 89.4882 84.2982 88.5193 85.2498 87.7266C86.0428 87.022 86.8358 86.0531 86.2014 84.82V84.5558ZM80.7296 87.7266L73.9889 94.1564C73.751 93.8922 73.5924 93.5399 73.4338 93.2756C72.958 92.3948 72.6408 91.3379 72.6408 90.2809C72.5615 87.6386 73.4338 85.4366 75.5749 84.1154C77.161 83.0585 78.9056 82.8823 80.6503 83.5869C81.5226 83.9392 82.5535 84.5558 83.1087 85.4366C82.3156 86.2293 81.4433 86.9339 80.7296 87.7266ZM16.6535 73.9863H16.4155C15.5432 73.9863 15.0674 74.3386 15.0674 75.3075V82.4419C13.4814 80.8565 11.5781 80.2399 9.35765 80.2399H8.72324C7.2165 80.2399 5.78906 80.5042 4.44092 81.385C1.58604 83.2346 0 85.9651 0 89.6644V90.369C0 92.0425 0.396511 93.4518 1.18953 94.9491C2.85488 98.12 5.47185 99.7054 8.72324 99.7054H9.35765C10.8644 99.7054 12.4504 99.4411 13.7193 98.6484C16.5741 96.7988 18.2395 94.0683 18.2395 90.4571V75.4837C18.2395 74.3386 17.5258 73.9863 16.6535 73.9863ZM14.1951 93.1875C13.0056 95.3895 11.2609 96.6226 8.96114 96.6226C8.00952 96.6226 7.05789 96.3584 6.26487 95.8299C4.20301 94.5968 3.01348 92.571 3.01348 89.9286C3.01348 88.9597 3.17209 88.079 3.5686 87.1982C4.67883 84.6439 6.50278 83.2346 9.04044 83.2346C10.3093 83.2346 11.4195 83.675 12.3711 84.4677C14.0365 85.7889 14.9881 87.5505 14.9881 89.8405C15.0674 91.0736 14.7502 92.1306 14.1951 93.1875ZM29.0246 80.1518H28.5488C27.042 80.1518 25.5353 80.4161 24.2665 81.2969C21.4116 83.1465 19.8255 85.877 19.8255 89.5763V90.2809C19.8255 91.9544 20.222 93.3637 21.0151 94.861C22.6804 98.0319 25.2974 99.6173 28.6281 99.6173H29.2625C30.7692 99.6173 32.276 99.3531 33.6241 98.5604C36.479 96.7107 38.1443 93.9802 38.1443 90.369V89.6644C38.1443 88.079 37.6685 86.7578 37.0341 85.4366C35.2895 81.9134 32.5139 80.1518 29.0246 80.1518ZM34.0999 93.1875C32.9104 95.3014 31.245 96.6226 28.9453 96.6226C27.9144 96.6226 26.8834 96.3584 25.9318 95.7418C23.9492 94.4206 22.839 92.571 22.839 90.0167C22.839 89.0478 22.9976 88.167 23.3941 87.2862C24.5044 84.732 26.3283 83.3227 28.866 83.3227C30.0555 83.3227 31.0864 83.675 32.0381 84.3796C33.7827 85.7008 34.8136 87.5505 34.8136 89.9286C34.8929 90.9856 34.655 92.1306 34.0999 93.1875ZM53.5289 81.385L53.4496 81.473C52.1015 80.5042 50.5948 80.1518 49.0087 80.1518H48.3743C46.8676 80.1518 45.3608 80.4161 44.092 81.2969C41.2371 83.1465 39.6511 85.877 39.6511 89.4882V90.1929C39.6511 91.0736 39.8097 91.8664 39.9683 92.7471C41.2371 97.5915 44.6471 100.322 49.2466 99.9696C50.5155 99.8815 53.9255 99.4411 53.9255 97.3272V96.9749C53.9255 96.1822 53.3703 95.4776 52.7359 95.3014L52.6566 95.1253H52.1015L51.9429 95.3895C51.2292 95.7418 50.0396 96.4465 49.2466 96.4465C48.295 96.4465 47.2641 96.4465 46.3918 95.918C44.092 94.6849 42.7439 92.6591 42.7439 89.8405C42.7439 88.8717 42.9025 87.9909 43.299 87.1101C44.4092 84.6439 46.2332 83.0585 48.7708 83.1465C49.2466 83.1465 50.119 83.4108 50.5948 83.675C50.9913 83.8512 52.0222 84.5558 52.498 84.5558H52.6566L52.7359 84.3796C53.4496 84.2035 54.0048 83.5869 54.0048 82.7942V82.4419C54.0048 82.0896 53.8462 81.8253 53.6875 81.5611L53.5289 81.385ZM3.8065 53.9043L3.88581 54.0805C10.1507 65.8831 21.0944 70.8155 33.069 70.8155C56.2252 70.8155 75.337 59.2771 84.0603 35.0554C89.9286 35.4077 95.9556 33.47 98.8105 27.2164L99.5242 25.631L98.0967 24.7502C94.6868 22.5482 90.1665 22.284 86.36 23.5171C85.8842 18.937 83.188 14.9734 80.0159 12.1549L78.747 11.0099L77.7161 12.4191C75.5749 15.1496 74.9405 19.7297 75.2577 23.2528C75.4956 25.8071 76.2094 28.4495 77.6368 30.5634C76.5266 31.268 75.337 32.2369 74.2268 32.6773C72.0063 33.5581 69.548 34.4389 67.1689 34.4389H61.8557V22.0197H51.5464V0H39.6511V10.5695H19.8255V22.0197H9.51626V34.3508H0.634417L0.475813 35.672C0.0793022 41.309 0.713719 46.7699 2.85488 51.9666L3.8065 53.9043ZM51.5464 24.6621H60.2696V34.3508H51.5464V24.6621ZM41.2371 1.76158H49.9604V11.4503H41.2371V1.76158ZM41.2371 13.2118H49.9604V22.9005H41.2371V13.2118ZM41.2371 24.6621H49.9604V34.3508H41.2371V24.6621ZM30.9278 13.2118H39.6511V22.9005H30.9278V13.2118ZM30.9278 24.6621H39.6511V34.3508H30.9278V24.6621ZM31.8002 52.1427C31.8002 53.6401 30.6899 54.8732 29.3418 54.8732C27.9937 54.8732 26.8834 53.6401 26.8834 52.1427C26.8834 50.6454 27.9937 49.4123 29.3418 49.4123C30.6899 49.5004 31.8002 50.6454 31.8002 52.1427ZM21.4116 13.2118H29.3418V22.9005H21.4116V13.2118ZM21.4116 24.6621H29.3418V34.3508H21.4116V24.6621ZM11.1023 24.6621H19.8255V34.3508H11.1023V24.6621ZM13.0056 58.1321C14.2744 58.1321 15.5432 58.1321 16.7328 58.044C19.8255 57.8679 22.5218 57.4275 24.7423 56.7229C26.5662 61.391 29.8969 65.7069 35.8446 68.8777L33.069 68.9658C20.5393 68.8777 13.7986 64.2096 8.24742 58.044C9.91277 58.1321 11.4988 58.1321 13.0056 58.1321ZM29.3418 54.0805C30.2934 54.0805 31.0864 53.1997 31.0864 52.1427C31.0864 51.8785 31.0071 51.6143 30.9278 51.4381C30.7692 51.7024 30.6106 51.8785 30.2934 51.8785C29.8969 51.8785 29.5797 51.5262 29.5797 51.0858C29.5797 50.8216 29.7383 50.5573 29.8969 50.3812C29.8176 50.2931 29.5797 50.205 29.3418 50.205C28.3902 50.205 27.5971 51.0858 27.5971 52.1427C27.6764 53.1997 28.3902 54.0805 29.3418 54.0805Z" fill="white"/>
</svg>
