<svg width="100" height="100" viewBox="0 0 100 100" fill="none" xmlns="http://www.w3.org/2000/svg">
<g clip-path="url(#clip0_187_54)">
<path d="M33.3332 100C42.5332 100 49.9998 92.5334 49.9998 83.3334V66.6667H33.3332C24.1332 66.6667 16.6665 74.1334 16.6665 83.3334C16.6665 92.5334 24.1332 100 33.3332 100Z" fill="#0ACF83"/>
<path d="M16.6665 49.9999C16.6665 40.7999 24.1332 33.3333 33.3332 33.3333H49.9998V66.6666H33.3332C24.1332 66.6666 16.6665 59.1999 16.6665 49.9999Z" fill="#A259FF"/>
<path d="M16.6665 16.6667C16.6665 7.46667 24.1332 0 33.3332 0H49.9998V33.3333H33.3332C24.1332 33.3333 16.6665 25.8667 16.6665 16.6667Z" fill="#F24E1E"/>
<path d="M50 0H66.6667C75.8667 0 83.3333 7.46667 83.3333 16.6667C83.3333 25.8667 75.8667 33.3333 66.6667 33.3333H50V0Z" fill="#FF7262"/>
<path d="M83.3333 49.9999C83.3333 59.1999 75.8667 66.6666 66.6667 66.6666C57.4667 66.6666 50 59.1999 50 49.9999C50 40.7999 57.4667 33.3333 66.6667 33.3333C75.8667 33.3333 83.3333 40.7999 83.3333 49.9999Z" fill="#1ABCFE"/>
</g>
<defs>
<clipPath id="clip0_187_54">
<rect width="100" height="100" fill="white"/>
</clipPath>
</defs>
</svg>
