<svg width="100" height="100" viewBox="0 0 100 100" fill="none" xmlns="http://www.w3.org/2000/svg">
<g clip-path="url(#clip0_187_65)">
<path d="M97.4545 46.6078L54.3944 3.54995C51.9162 1.07026 47.8944 1.07026 45.4123 3.54995L36.4725 12.4921L47.8147 23.8343C50.4514 22.9445 53.4733 23.5414 55.574 25.6421C57.6858 27.7562 58.2787 30.8039 57.3654 33.4492L68.2967 44.382C70.9412 43.4703 73.9936 44.0593 76.1045 46.1749C79.0576 49.1257 79.0576 53.9093 76.1045 56.8617C73.1514 59.8148 68.3694 59.8148 65.4147 56.8617C63.1944 54.6398 62.6451 51.3781 63.7701 48.6421L53.5764 38.4476L53.5748 65.2765C54.2951 65.632 54.974 66.107 55.574 66.7046C58.5264 69.6554 58.5264 74.4374 55.574 77.3945C52.6217 80.3453 47.8365 80.3453 44.8873 77.3945C41.9358 74.4382 41.6936 69.6562 44.6444 66.7046C45.374 65.9757 46.0936 65.4249 46.8748 65.0562V37.9789C46.0936 37.6101 45.3748 37.0632 44.6436 36.3296C42.4084 34.0953 41.9904 30.814 43.1373 28.0671L32.0178 16.8851L2.52248 46.4085C0.0420106 48.8906 0.0576356 52.9124 2.5381 55.3929L45.6053 98.4507C48.0842 100.93 52.1092 100.93 54.592 98.4507L97.4514 55.5929C99.9319 53.1117 99.9342 49.0874 97.4545 46.6078Z" fill="#F34F29"/>
</g>
<defs>
<clipPath id="clip0_187_65">
<rect width="100" height="100" fill="white"/>
</clipPath>
</defs>
</svg>
