<svg width="90" height="110" viewBox="0 0 90 110" fill="none" xmlns="http://www.w3.org/2000/svg">
<g clip-path="url(#clip0_187_18)">
<path d="M89.8434 21.563L81.6727 100.897L44.945 109.722L8.31848 100.909L0.15625 21.563H89.8434Z" fill="#C54702"/>
<path d="M45 102.977L74.6779 95.8454L81.6599 28.0507H45V102.977Z" fill="#F17029"/>
<path d="M29.1163 47.514H44.9999V37.7825H16.8457L17.1143 40.3932L19.8741 67.2107H44.9999V57.4792H30.1425L29.1163 47.514ZM31.6468 72.0766H20.3757L21.9486 87.3565L44.9482 92.89L44.9999 92.8778V82.753L44.9507 82.7642L32.4463 79.8378L31.6468 72.0766Z" fill="#EBEBEB"/>
<path d="M8.50098 0H14.2068V4.88601H19.4265V0H25.1327V14.7961H19.4268V9.8415H14.2072V14.7961H8.50133L8.50098 0ZM32.6357 4.90673H27.6133V0H43.3682V4.90673H38.3427V14.7961H32.6368V4.90673H32.6357ZM45.8686 0H51.818L55.4778 5.19895L59.1341 0H65.086V14.7961H59.4034V7.46233L55.4778 12.7231H55.3794L51.4514 7.46233V14.7961H45.8686V0ZM67.9256 0H73.6332V9.90549H81.6573V14.7961H67.9252L67.9256 0Z" fill="white"/>
<path d="M44.9613 67.2107H58.7872L57.4836 79.8317L44.9609 82.7612V92.8855L67.9788 87.3565L68.1475 85.7123L70.7864 60.0924L71.0602 57.4792H44.9613V67.2107ZM44.9613 47.4902V47.514H72.0819L72.3069 45.3268L72.8187 40.3932L73.087 37.7825H44.9613V47.4902Z" fill="white"/>
</g>
<defs>
<clipPath id="clip0_187_18">
<rect width="90" height="110" fill="white"/>
</clipPath>
</defs>
</svg>
