<svg width="120" height="120" viewBox="0 0 120 120" fill="none" xmlns="http://www.w3.org/2000/svg">
<path d="M107.18 75.7022C106.908 75.7022 106.638 75.6309 106.4 75.4922L103.915 74.0222C103.544 73.815 103.725 73.7409 103.848 73.6988C104.343 73.5263 104.443 73.4859 104.971 73.1878C105.026 73.1569 105.098 73.1681 105.156 73.2019L107.063 74.3353C107.133 74.3738 107.231 74.3738 107.294 74.3353L114.735 70.0406C114.805 70.0013 114.849 69.9216 114.849 69.8391V61.2516C114.849 61.1672 114.805 61.0894 114.734 61.0463L107.296 56.7553C107.226 56.7159 107.136 56.7159 107.066 56.7553L99.629 61.0472C99.5577 61.0894 99.5118 61.17 99.5118 61.2516V69.8391C99.5118 69.9216 99.5577 69.9994 99.629 70.0378L101.667 71.2163C102.773 71.7684 103.451 71.1178 103.451 70.4634V61.9838C103.451 61.8647 103.548 61.77 103.667 61.77H104.611C104.728 61.77 104.826 61.8647 104.826 61.9838V70.4634C104.826 71.9391 104.022 72.7856 102.622 72.7856C102.192 72.7856 101.854 72.7856 100.909 72.3206L98.9577 71.1975C98.4749 70.9181 98.1777 70.3969 98.1777 69.84V61.2525C98.1777 60.6947 98.4749 60.1744 98.9577 59.8969L106.399 55.5966C106.869 55.3313 107.495 55.3313 107.961 55.5966L115.402 59.8969C115.884 60.1753 116.183 60.6956 116.183 61.2525V69.84C116.183 70.3978 115.884 70.9163 115.402 71.1975L107.961 75.4931C107.725 75.6309 107.456 75.7022 107.18 75.7022ZM109.479 69.7856C106.221 69.7856 105.54 68.2903 105.54 67.0369C105.54 66.9188 105.636 66.8222 105.756 66.8222H106.717C106.825 66.8222 106.914 66.8991 106.931 67.0041C107.076 67.9838 107.51 68.4778 109.479 68.4778C111.046 68.4778 111.713 68.1234 111.713 67.2909C111.713 66.8109 111.524 66.4556 109.088 66.2166C107.052 66.015 105.793 65.5659 105.793 63.9356C105.793 62.4347 107.059 61.5384 109.179 61.5384C111.563 61.5384 112.743 62.3663 112.892 64.1419C112.897 64.2019 112.876 64.2609 112.836 64.3069C112.794 64.3491 112.738 64.3753 112.678 64.3753H111.711C111.611 64.3753 111.523 64.305 111.502 64.2075C111.27 63.1763 110.707 62.8472 109.178 62.8472C107.467 62.8472 107.269 63.4444 107.269 63.8897C107.269 64.4306 107.503 64.5881 109.814 64.8938C112.101 65.1966 113.187 65.6241 113.187 67.2319C113.188 68.8566 111.836 69.7856 109.479 69.7856Z" fill="#83CD29"/>
<path d="M91.8581 64.1532C92.1516 63.9816 92.3325 63.6685 92.3325 63.3282V61.1213C92.3325 60.7819 92.1525 60.4688 91.8581 60.2972L84.0169 55.7447C83.7216 55.5732 83.3578 55.5722 83.0616 55.7429L75.1716 60.2982C74.8772 60.4688 74.6953 60.7829 74.6953 61.1232V70.2319C74.6953 70.5741 74.8791 70.891 75.1772 71.0607L83.0175 75.5279C83.3062 75.6938 83.6606 75.6947 83.9522 75.5335L88.6941 72.8972C88.845 72.8129 88.9388 72.6554 88.9397 72.4847C88.9406 72.3122 88.8487 72.1529 88.6997 72.0676L80.7609 67.5113C80.6119 67.426 80.5209 67.2685 80.5209 67.0988V64.2432C80.5209 64.0726 80.6119 63.916 80.7591 63.8316L83.2312 62.4066C83.3775 62.3213 83.5594 62.3213 83.7066 62.4066L86.1788 63.8316C86.3269 63.9169 86.4178 64.0735 86.4178 64.2432V66.4894C86.4178 66.661 86.5087 66.8185 86.6559 66.9029C86.8041 66.9882 86.9859 66.9882 87.1341 66.9019L91.8581 64.1532Z" fill="#404137"/>
<path d="M83.4224 63.7256C83.4796 63.6937 83.5489 63.6937 83.6052 63.7256L85.1193 64.6003C85.1755 64.6331 85.2102 64.694 85.2102 64.7587V66.5071C85.2102 66.5728 85.1755 66.6328 85.1193 66.6656L83.6052 67.5393C83.5489 67.5721 83.4786 67.5721 83.4224 67.5393L81.9093 66.6656C81.8521 66.6328 81.8174 66.5728 81.8174 66.5071V64.7587C81.8174 64.694 81.8521 64.6331 81.9093 64.6003L83.4224 63.7256Z" fill="#83CD29"/>
<path d="M62.8903 67.3631C62.8903 67.4475 62.8453 67.5263 62.7713 67.5694L60.0619 69.1313C59.9878 69.1744 59.8969 69.1744 59.8237 69.1313L57.1144 67.5694C57.0403 67.5263 56.9953 67.4475 56.9953 67.3631V64.2338C56.9953 64.1494 57.0413 64.0697 57.1144 64.0266L59.8237 62.4628C59.8978 62.4188 59.9888 62.4188 60.0628 62.4628L62.7731 64.0266C62.8463 64.0697 62.8912 64.1494 62.8912 64.2338L62.8903 67.3631ZM63.6225 44.1919C63.4753 44.1103 63.2953 44.1122 63.1491 44.1975C63.0038 44.2838 62.9138 44.4394 62.9138 44.6081V56.7159C62.9138 56.8341 62.85 56.9447 62.7478 57.0047C62.6447 57.0638 62.5172 57.0638 62.4141 57.0047L60.4378 55.8656C60.1434 55.6959 59.7806 55.6959 59.4862 55.8656L51.5944 60.42C51.2991 60.5906 51.1172 60.9056 51.1172 61.2459V70.3575C51.1172 70.6978 51.2991 71.0119 51.5934 71.1834L59.4853 75.7406C59.7797 75.9113 60.1434 75.9113 60.4388 75.7406L68.3325 71.1834C68.6269 71.0119 68.8088 70.6978 68.8088 70.3575V47.6447C68.8088 47.2997 68.6213 46.9809 68.3203 46.8122L63.6225 44.1919Z" fill="#404137"/>
<path d="M35.8482 55.694C36.1426 55.5234 36.5063 55.5234 36.8007 55.694L44.6926 60.2474C44.987 60.4181 45.1688 60.7331 45.1688 61.0734V70.1878C45.1688 70.5281 44.987 70.8431 44.6926 71.0137L36.8017 75.5709C36.5073 75.7406 36.1435 75.7406 35.8482 75.5709L27.9592 71.0137C27.6648 70.8431 27.4829 70.5281 27.4829 70.1878V61.0724C27.4829 60.7331 27.6648 60.4181 27.9592 60.2474L35.8482 55.694Z" fill="#83CD29"/>
<path d="M21.4971 60.9975C21.4971 60.6543 21.3171 60.3393 21.0208 60.1696L13.1317 55.6293C12.9967 55.5506 12.8477 55.5103 12.6967 55.5046H12.6152C12.4652 55.5103 12.3152 55.5506 12.1802 55.6293L4.29018 60.1696C3.99674 60.3393 3.81299 60.6543 3.81299 60.9975L3.82986 73.2224C3.82986 73.3931 3.91893 73.5515 4.06799 73.634C4.21424 73.7221 4.39518 73.7221 4.54143 73.634L9.22893 70.949C9.52518 70.7728 9.70611 70.4624 9.70611 70.1221V64.4109C9.70611 64.0696 9.88611 63.7556 10.1814 63.5849L12.1783 62.4356C12.3264 62.3484 12.4896 62.3071 12.6546 62.3071C12.8177 62.3071 12.9846 62.3484 13.1299 62.4356L15.1249 63.5849C15.4202 63.7556 15.6021 64.0696 15.6021 64.4109V70.1221C15.6021 70.4624 15.7849 70.7746 16.0792 70.949L20.7667 73.634C20.9139 73.7221 21.0977 73.7221 21.243 73.634C21.3883 73.5506 21.4792 73.3921 21.4792 73.2224L21.4971 60.9975Z" fill="#404137"/>
</svg>
