<svg width="100" height="100" viewBox="0 0 100 100" fill="none" xmlns="http://www.w3.org/2000/svg">
<path fill-rule="evenodd" clip-rule="evenodd" d="M35.8372 17.5335C33.661 16.8078 32.202 16.9743 31.25 17.524C30.298 18.0737 29.4242 19.2538 28.9645 21.5016C28.5055 23.7455 28.533 26.758 29.1385 30.3982C29.3535 31.691 29.6385 33.0457 29.9922 34.4522C33.161 33.7877 36.5718 33.2782 40.1545 32.9467C42.2327 30.01 44.3792 27.311 46.539 24.8988C45.4978 23.8892 44.4672 22.965 43.4552 22.1324C40.6052 19.7879 38.0103 18.258 35.8372 17.5335ZM50 21.2903C48.8705 20.1958 47.745 19.1871 46.6318 18.2712C43.5115 15.7041 40.3785 13.7771 37.419 12.7902C34.463 11.8047 31.385 11.6725 28.75 13.1939C26.115 14.7153 24.6904 17.4469 24.066 20.4996C23.4408 23.5561 23.5432 27.2327 24.2062 31.2185C24.4427 32.6407 24.7536 34.1197 25.1367 35.645C23.6241 36.0762 22.1878 36.5462 20.8379 37.0525C17.0546 38.4712 13.8193 40.221 11.4849 42.2907C9.15337 44.3577 7.5 46.9572 7.5 50C7.5 53.0427 9.15337 55.6422 11.4849 57.7092C13.8193 59.779 17.0546 61.5287 20.8379 62.9475C22.1878 63.4537 23.6241 63.9237 25.1367 64.3547C24.7536 65.8802 24.4427 67.3592 24.2062 68.7815C23.5432 72.7672 23.4408 76.444 24.066 79.5005C24.6904 82.553 26.115 85.2847 28.75 86.806C31.385 88.3275 34.463 88.1952 37.419 87.2097C40.3785 86.223 43.5115 84.296 46.6318 81.7287C47.745 80.813 48.8705 79.8042 50 78.7097C51.1295 79.8042 52.255 80.813 53.3682 81.7287C56.4885 84.296 59.6215 86.223 62.581 87.2097C65.537 88.1952 68.615 88.3275 71.25 86.806C73.885 85.2847 75.3095 82.553 75.934 79.5005C76.5592 76.444 76.4567 72.7672 75.7937 68.7815C75.5573 67.3592 75.2465 65.8802 74.8633 64.3547C76.376 63.9237 77.8122 63.4537 79.162 62.9475C82.9455 61.5287 86.1807 59.779 88.515 57.7092C90.8465 55.6422 92.5 53.0427 92.5 50C92.5 46.9572 90.8465 44.3577 88.515 42.2907C86.1807 40.221 82.9455 38.4712 79.162 37.0525C77.8122 36.5462 76.376 36.0762 74.8635 35.645C75.2465 34.1197 75.5573 32.6407 75.7937 31.2185C76.4567 27.2327 76.5592 23.5561 75.934 20.4996C75.3095 17.4469 73.885 14.7153 71.25 13.1939C68.615 11.6725 65.537 11.8047 62.581 12.7902C59.6215 13.7771 56.4885 15.7041 53.3682 18.2712C52.255 19.1871 51.1295 20.1958 50 21.2903ZM50 28.5307C48.8887 29.7852 47.7757 31.1275 46.6705 32.55C47.7697 32.5167 48.8802 32.5 50 32.5C51.1198 32.5 52.2303 32.5167 53.3295 32.55C52.2243 31.1275 51.1113 29.7852 50 28.5307ZM59.8457 32.9467C57.7672 30.01 55.621 27.311 53.461 24.8988C54.5022 23.8892 55.5328 22.965 56.5448 22.1324C59.3948 19.7879 61.9897 18.258 64.1628 17.5335C66.339 16.8078 67.798 16.9743 68.75 17.524C69.702 18.0737 70.5757 19.2538 71.0355 21.5016C71.4945 23.7455 71.467 26.758 70.8615 30.3982C70.6465 31.691 70.3615 33.0457 70.0077 34.4522C66.839 33.7877 63.4282 33.2782 59.8457 32.9467ZM57.0785 37.7397C54.7882 37.5825 52.4225 37.5 50 37.5C47.5775 37.5 45.2118 37.5825 42.9215 37.7397C41.6403 39.6445 40.386 41.652 39.1747 43.75C37.9635 45.848 36.852 47.938 35.8433 50C36.852 52.062 37.9635 54.152 39.1747 56.25C40.386 58.348 41.6403 60.3555 42.9215 62.2602C45.2118 62.4175 47.5775 62.5 50 62.5C52.4225 62.5 54.7882 62.4175 57.0785 62.2602C58.3597 60.3555 59.614 58.348 60.8252 56.25C62.0365 54.152 63.148 52.062 64.1568 50C63.148 47.938 62.0365 45.848 60.8252 43.75C59.614 41.652 58.3597 39.6445 57.0785 37.7397ZM66.7767 44.1585C66.256 43.19 65.7153 42.2197 65.1555 41.25C64.5955 40.2802 64.0258 39.327 63.4473 38.3917C65.232 38.6375 66.9508 38.9302 68.593 39.2652C68.062 40.855 67.4562 42.49 66.7767 44.1585ZM66.7767 55.8415C66.256 56.8102 65.7153 57.7802 65.1555 58.75C64.5955 59.7197 64.0258 60.673 63.4473 61.6082C65.232 61.3625 66.9508 61.0697 68.593 60.7347C68.062 59.145 67.4562 57.51 66.7767 55.8415ZM73.4688 59.5532C72.4598 56.4767 71.1955 53.2685 69.6912 50C71.1955 46.7315 72.4598 43.5232 73.4688 40.4467C74.8638 40.8435 76.1795 41.274 77.4065 41.7342C80.8618 43.03 83.4843 44.5125 85.198 46.032C86.9147 47.554 87.5 48.9007 87.5 50C87.5 51.0992 86.9147 52.446 85.198 53.968C83.4843 55.4875 80.8618 56.97 77.4065 58.2657C76.1795 58.726 74.8638 59.1565 73.4688 59.5532ZM70.0077 65.5477C66.839 66.2122 63.4282 66.7217 59.8457 67.0532C57.7672 69.99 55.621 72.689 53.461 75.1012C54.5022 76.1107 55.5328 77.035 56.5448 77.8675C59.3948 80.212 61.9897 81.742 64.1628 82.4665C66.339 83.1922 67.798 83.0257 68.75 82.476C69.702 81.9262 70.5757 80.7462 71.0355 78.4985C71.4945 76.2545 71.467 73.242 70.8615 69.6017C70.6465 68.309 70.3615 66.9542 70.0077 65.5477ZM50 71.4692C51.1113 70.2147 52.2243 68.8725 53.3295 67.45C52.2303 67.483 51.1198 67.5 50 67.5C48.8802 67.5 47.7697 67.483 46.6705 67.45C47.7757 68.8725 48.8887 70.2147 50 71.4692ZM36.5528 61.6082C35.9743 60.673 35.4045 59.7197 34.8445 58.75C34.2848 57.7802 33.744 56.8102 33.2232 55.8415C32.5438 57.51 31.938 59.145 31.407 60.7347C33.0493 61.0697 34.768 61.3625 36.5528 61.6082ZM29.9922 65.5477C33.161 66.2122 36.5718 66.7217 40.1543 67.0532C42.2328 69.99 44.379 72.689 46.539 75.1012C45.4978 76.1107 44.4672 77.035 43.4552 77.8675C40.6052 80.212 38.0103 81.742 35.8372 82.4665C33.661 83.1922 32.202 83.0257 31.25 82.476C30.298 81.9262 29.4242 80.7462 28.9645 78.4985C28.5055 76.2545 28.533 73.242 29.1385 69.6017C29.3535 68.309 29.6385 66.9542 29.9922 65.5477ZM26.5312 59.5532C27.5403 56.4767 28.8045 53.2685 30.3088 50C28.8045 46.7315 27.5403 43.5232 26.5312 40.4467C25.1362 40.8435 23.8206 41.274 22.5935 41.7342C19.1382 43.03 16.5157 44.5125 14.8019 46.032C13.0852 47.554 12.5 48.9007 12.5 50C12.5 51.0992 13.0852 52.446 14.8019 53.968C16.5157 55.4875 19.1382 56.97 22.5935 58.2657C23.8206 58.726 25.1362 59.1565 26.5312 59.5532ZM31.407 39.2652C31.938 40.855 32.5438 42.49 33.2232 44.1585C33.744 43.19 34.2848 42.2197 34.8445 41.25C35.4045 40.2802 35.9743 39.327 36.5528 38.3917C34.768 38.6375 33.0493 38.9302 31.407 39.2652ZM45 50C45 47.2385 47.2385 45 50 45C52.7615 45 55 47.2385 55 50C55 52.7615 52.7615 55 50 55C47.2385 55 45 52.7615 45 50Z" fill="#61DAFB"/>
</svg>
