<svg width="100" height="100" viewBox="0 0 100 100" fill="none" xmlns="http://www.w3.org/2000/svg">
<path d="M69.2894 69.8392C72.9797 69.4368 75.7793 66.0858 75.6519 62.0642C75.525 58.0429 72.3433 54.8257 68.5258 54.8257H68.2715C64.3262 54.9598 61.2723 58.4449 61.3996 62.6003C61.5269 64.6111 62.2902 66.3537 63.4355 67.5601C59.109 76.5416 52.4918 83.1098 42.566 88.6057C35.8215 92.3591 28.8226 93.6997 21.8238 92.7615C16.0973 91.9571 11.6434 89.2764 8.84335 84.8523C4.77148 78.2841 4.38984 71.1793 7.82578 64.075C10.2437 58.981 14.0609 55.2277 16.4789 53.351C15.9699 51.6084 15.2062 48.6594 14.8246 46.5149C-3.62735 60.5899 -1.71836 79.6247 3.88085 88.6057C8.08007 95.3085 16.6062 99.4639 26.023 99.4639C28.568 99.4639 31.1129 99.1956 33.6582 98.5257C49.9469 95.1743 62.2906 84.9865 69.2894 69.8392ZM91.6863 53.2172C82.0148 41.2868 67.7625 34.7186 51.4738 34.7186H49.4379C48.2926 32.3058 45.8746 30.6969 43.2023 30.6969H42.9476C39.0031 30.8311 35.9492 34.3162 36.0762 38.472C36.2035 42.4932 39.3848 45.7105 43.2023 45.7105H43.4566C46.2562 45.5763 48.6742 43.6996 49.6922 41.1527H51.9828C61.6543 41.1527 70.8164 44.1017 79.0883 49.8659C85.4508 54.2895 90.032 60.0537 92.5769 67.024C94.7402 72.654 94.6129 78.15 92.3222 82.8419C88.7594 89.9463 82.7785 93.8338 74.8887 93.8338C69.7984 93.8338 64.9629 92.225 62.4176 91.0185C61.018 92.3591 58.4726 94.5037 56.691 95.8446C62.1633 98.5253 67.7625 100 73.107 100C85.3234 100 94.3586 92.8952 97.7945 85.7909C101.485 78.0158 101.23 64.6111 91.6863 53.2172ZM27.041 72.1175C27.1683 76.1391 30.3496 79.356 34.1672 79.356H34.4219C38.3668 79.2223 41.4207 75.7367 41.2933 71.5813C41.1664 67.5597 37.9848 64.3428 34.1672 64.3428H33.9129C33.6582 64.3428 33.2762 64.3428 33.0223 64.4766C27.8047 55.3614 25.6414 45.4422 26.4051 34.7182C26.9137 26.6753 29.459 19.7047 33.9129 13.9404C37.6031 8.98064 44.7293 6.56781 49.5652 6.43408C63.0539 6.1658 68.7801 23.86 69.1621 30.9648C70.8164 31.3668 73.616 32.3054 75.525 32.9756C73.9976 11.2602 61.2723 0 49.0562 0C37.6031 0 27.041 8.71318 22.8414 21.5818C16.9879 38.7398 20.8055 55.2277 27.9316 68.2304C27.2957 69.1685 26.9137 70.6428 27.041 72.1175Z" fill="#764ABC"/>
</svg>
