<svg width="100" height="100" viewBox="0 0 100 100" fill="none" xmlns="http://www.w3.org/2000/svg">
<path d="M77.0835 39.6251C73.9587 38.5489 71.2005 36.6138 69.1252 34.0418C66.8379 31.1761 63.9254 28.8715 60.6106 27.3044C57.2958 25.7372 53.6664 24.949 50.0002 25.0001C45.0684 24.6508 40.1859 26.1719 36.3252 29.2605C32.4644 32.3491 29.9087 36.7786 29.1668 41.6668C30.628 39.2219 32.8271 37.3037 35.4476 36.1881C38.0682 35.0725 40.9752 34.817 43.7502 35.4584C46.8697 36.566 49.6234 38.5123 51.7085 41.0834C54.0083 43.9262 56.9263 46.207 60.2404 47.7521C63.5546 49.2973 67.1775 50.0661 70.8335 50.0001C75.7653 50.3494 80.6477 48.8282 84.5085 45.7396C88.3692 42.6511 90.925 38.2216 91.6668 33.3334C90.2322 35.8075 88.0401 37.7547 85.4142 38.8876C82.7882 40.0205 79.8676 40.2791 77.0835 39.6251ZM22.9168 60.3751C26.0416 61.4513 28.7998 63.3864 30.8752 65.9584C33.1625 68.8241 36.0749 71.1287 39.3897 72.6958C42.7046 74.263 46.3339 75.0512 50.0002 75.0001C54.932 75.3494 59.8144 73.8282 63.6751 70.7396C67.5359 67.6511 70.0917 63.2216 70.8335 58.3334C69.3724 60.7782 67.1733 62.6965 64.5527 63.8121C61.9321 64.9277 59.0252 65.1832 56.2502 64.5418C53.1306 63.4342 50.3769 61.4879 48.2918 58.9168C45.9858 56.081 43.0666 53.8052 39.7539 52.2608C36.4413 50.7163 32.8214 49.9433 29.1668 50.0001C24.235 49.6508 19.3526 51.1719 15.4919 54.2605C11.6311 57.3491 9.07534 61.7786 8.3335 66.6668C9.76811 64.1927 11.9602 62.2455 14.5861 61.1126C17.2121 59.9797 20.1327 59.7211 22.9168 60.3751Z" fill="#61DAFB"/>
</svg>
