<svg width="100" height="100" viewBox="0 0 100 100" fill="none" xmlns="http://www.w3.org/2000/svg">
<path d="M97.4732 14.7339L52.5957 96.1746C51.6691 97.856 49.2886 97.8659 48.3481 96.1926L2.58072 14.7417C1.55613 12.9183 3.09255 10.7096 5.12862 11.0789L50.0542 19.2284C50.3408 19.2804 50.6342 19.2799 50.9208 19.2269L94.9069 11.0906C96.9362 10.7153 98.4798 12.9069 97.4732 14.7339Z" fill="url(#paint0_linear_187_69)"/>
<path d="M71.4551 0.389622L38.2444 6.99378C37.6985 7.10232 37.2944 7.57178 37.2614 8.13517L35.2185 43.1509C35.1705 43.9757 35.9168 44.6158 36.71 44.4301L45.9563 42.2645C46.8214 42.062 47.6031 42.8353 47.4253 43.7182L44.6783 57.37C44.4934 58.2888 45.3434 59.0744 46.2275 58.8019L51.9385 57.041C52.8239 56.7682 53.6746 57.5561 53.4873 58.4757L49.1217 79.9195C48.8485 81.2608 50.6066 81.9922 51.3397 80.8422L51.8295 80.0742L78.8914 25.2653C79.3446 24.3476 78.5631 23.3012 77.57 23.4957L68.0524 25.3598C67.158 25.5348 66.397 24.6895 66.6495 23.8015L72.8614 1.94717C73.1141 1.05763 72.3505 0.211597 71.4551 0.389622Z" fill="url(#paint1_linear_187_69)"/>
<defs>
<linearGradient id="paint0_linear_187_69" x1="1.46323" y1="8.16839" x2="58.3894" y2="84.3472" gradientUnits="userSpaceOnUse">
<stop stop-color="#41D1FF"/>
<stop offset="1" stop-color="#BD34FE"/>
</linearGradient>
<linearGradient id="paint1_linear_187_69" x1="47.4761" y1="2.18259" x2="57.8756" y2="72.4782" gradientUnits="userSpaceOnUse">
<stop stop-color="#FFEA83"/>
<stop offset="0.083" stop-color="#FFDD35"/>
<stop offset="1" stop-color="#FFA800"/>
</linearGradient>
</defs>
</svg>
