<svg width="100" height="100" viewBox="0 0 100 100" fill="none" xmlns="http://www.w3.org/2000/svg">
<path d="M50 0C40.1109 0 30.444 2.93245 22.2215 8.42652C13.999 13.9206 7.59043 21.7295 3.80605 30.8658C0.0216643 40.0021 -0.968502 50.0555 0.960758 59.7545C2.89002 69.4536 7.65206 78.3627 14.6447 85.3553C21.6373 92.348 30.5464 97.11 40.2455 99.0393C49.9445 100.969 59.9979 99.9784 69.1342 96.194C78.2705 92.4096 86.0794 86.001 91.5735 77.7785C97.0676 69.5561 100 59.8891 100 50C100 36.7392 94.7322 24.0215 85.3553 14.6447C75.9785 5.26784 63.2608 0 50 0ZM80.0741 70.8333C77.324 71.4593 74.7368 72.6582 72.4815 74.3519C68.5618 76.8137 64.3421 78.7618 59.9259 80.1481C59.0758 80.8462 58.0736 81.3346 57 81.5741C52.2143 82.2885 47.3916 82.7275 42.5556 82.8889H42.3704C41.2765 82.9853 40.1744 82.8523 39.1349 82.4983C38.0953 82.1444 37.1411 81.5773 36.3333 80.8333C34.9155 81.418 33.3831 81.6718 31.8525 81.5755C30.3219 81.4792 28.8334 81.0354 27.5 80.2778C26.8877 79.9705 26.3539 79.527 25.9398 78.9812C25.5257 78.4355 25.2422 77.8021 25.1111 77.1296C25.0142 76.5783 25.0142 76.0143 25.1111 75.463C24.8756 75.2122 24.6648 74.9393 24.4815 74.6481C23.0075 72.2141 22.3581 69.3696 22.6296 66.537C23.0591 63.822 24.3589 61.3199 26.3333 59.4074C26.196 56.1961 26.7322 52.9917 27.9074 50C29.2232 47.2188 31.1172 44.7502 33.463 42.7593C32.5531 41.4182 31.9574 39.8893 31.7202 38.2862C31.4829 36.6831 31.6102 35.0471 32.0926 33.5C33.0371 30.9815 33.8148 29.5926 35.5185 29C36.2586 28.7858 36.946 28.42 37.5371 27.9259C40.017 25.218 43.447 23.5726 47.1111 23.3333C47.2593 22.9444 47.4445 22.5556 47.6296 22.1481C48.3614 20.0621 49.8754 18.3422 51.8519 17.3519C52.4347 17.1346 53.0606 17.0583 53.6785 17.1291C54.2964 17.1999 54.8889 17.4158 55.4074 17.7593C55.9259 18.1111 56.6111 18.537 58.5556 22.5741C59.3017 22.3308 60.1058 22.3308 60.8519 22.5741C61.2497 22.6947 61.6189 22.8947 61.9372 23.1621C62.2555 23.4295 62.5163 23.7586 62.7037 24.1296C64.6852 27.9444 64.963 34.7593 64.0926 39.1481C63.3224 43.0272 61.7174 46.6922 59.3889 49.8889C61.4801 52.027 63.0846 54.5917 64.0926 57.4074C65.0549 60.0933 65.446 62.9506 65.2407 65.7963C66.1078 65.392 66.9489 64.9343 67.7593 64.4259C70.8807 62.1829 74.5569 60.8379 78.3889 60.537C79.7216 60.4688 81.0314 60.9025 82.06 61.7528C83.0885 62.603 83.7609 63.8079 83.9445 65.1296C84.1229 66.3912 83.8255 67.6741 83.11 68.7284C82.3946 69.7828 81.3124 70.5331 80.0741 70.8333Z" fill="#2C8EBB"/>
</svg>
